<?xml version="1.0" encoding="UTF-8"?>
<svg width="157.97mm" height="55.356mm" version="1.1" viewBox="0 0 157.97 55.356" xmlns="http://www.w3.org/2000/svg" xmlns:cc="http://creativecommons.org/ns#" xmlns:dc="http://purl.org/dc/elements/1.1/" xmlns:rdf="http://www.w3.org/1999/02/22-rdf-syntax-ns#" xmlns:xlink="http://www.w3.org/1999/xlink">
 <metadata>
  <rdf:RDF>
   <cc:Work rdf:about="">
    <dc:format>image/svg+xml</dc:format>
    <dc:type rdf:resource="http://purl.org/dc/dcmitype/StillImage"/>
    <dc:title/>
   </cc:Work>
  </rdf:RDF>
 </metadata>
 <path id="path4" d="m116.61 57.353 9.1608-5.9184 5.0746-5.8926 14.678-11.428 6.1318-6.9527 6.4847-1.1967-0.18899 8.1405-7.1402 6.3724-8.0106 10.064-7.1506 7.3609z" style="fill:#a6795c"/>
 <use transform="matrix(-1 0 0 1 158.08 0)" width="100%" height="100%" xlink:href="#path4"/>
 <rect x="-7.1716e-7" y="3.7842e-6" width="157.97" height="9.226" style="fill-rule:evenodd;fill:#30303c;stop-color:#000000;stroke-miterlimit:10;stroke-width:.33797"/>
 <rect x="-7.1716e-7" y="9.226" width="157.97" height="9.226" style="fill-rule:evenodd;fill:#ececec;stop-color:#000000;stroke-miterlimit:10;stroke-width:.33867"/>
 <rect x="-7.1716e-7" y="18.453" width="157.97" height="9.226" style="fill-rule:evenodd;fill:#005c30;stop-color:#000000;stroke-miterlimit:10;stroke-width:.35269"/>
 <rect transform="rotate(45)" x="55.371" y="-54.826" width="19.167" height="19.167" style="fill-rule:evenodd;fill:#c12935;stop-color:#000000;stroke-miterlimit:10;stroke-width:.35269"/>
 <text x="7.3696337" y="16.921078" style="fill:#c12935;font-family:'Noto Sans';font-size:8.4667px;letter-spacing:1.0583px;line-height:1.25;stroke-width:.26458" xml:space="preserve"><tspan x="7.3696337" y="16.921078" dx="0" style="fill:#c12935;font-family:'Noto Sans';font-size:8.4667px;font-weight:bold;stroke-width:.26458">PALESTINE</tspan></text>
 <text x="97.306816" y="15.885287" style="fill:#c12935;font-family:'Noto Sans';font-size:7.9375px;letter-spacing:.13229px;line-height:1.25;stroke-width:.26458" xml:space="preserve"><tspan x="97.306816" y="15.885287" style="fill:#c12935;font-family:'Noto Naskh Arabic';font-size:7.9375px;font-weight:bold;stroke-width:.26458">فـــلـــســــطـــیـــن</tspan></text>
 <path d="m77.59 33.841c-1.8068 0.0557-3.4385 1.9722-5.2006 2.5037-2.2557 0.68026-2.1722 3.6623-3.2586 5.4932-1.0864 1.8308-0.57678 3.9854-0.86557 5.9779s1.2357 5.5004 1.8531 8.2501c2.3854 0.99128 4.9424 1.5677 7.5225 1.6955 3.4403 0.17038 6.9177-0.46294 10.077-1.835 0.24499-2.5009 0.48984-5.0019 0.73432-7.5032 0.24446-2.5014-1.26-6.2369-1.8903-9.3558s-4.9376-3.1758-7.4067-4.764c-0.54011-0.34745-1.0594-0.47757-1.5653-0.46198z" style="fill:#a6795c;stroke-width:.26458"/>
 <path d="m78.286 29.666c-1.0084 0.03193-0.89605 1.2898-0.89605 1.2898s-2.3438-0.69074-3.516-1.0366c-1.1722-0.34588-4.2052 2.5503-6.3086 3.825-2.1032 1.2748-2.8916 4.2039-4.3378 6.3055-1.4461 2.1015-1.0188 4.4772-1.5286 6.7153-0.50977 2.2382-1.1031 2.8588-1.6552 4.288s-0.73154 3.094-1.0976 4.6405c7.8892 4.3373 17.371 5.6964 26.161 3.7502 3.2498-0.71958 6.4026-1.8748 9.3481-3.4245-0.32247-2.4606-0.64491-4.9212-0.96789-7.3823-0.323-2.4611-3.1813-8.5584-4.7722-12.838-1.591-4.2796-5.771-3.6382-8.6568-5.458-0.81163-0.51178-1.3779-0.68738-1.7725-0.67489zm-0.69608 4.1748c0.5059-0.01558 1.0251 0.11453 1.5653 0.46198 2.4691 1.5883 6.7764 1.6451 7.4067 4.764 0.63034 3.1189 2.1348 6.8545 1.8903 9.3558-0.24446 2.5014-0.48932 5.0024-0.73432 7.5032-3.1593 1.3721-6.637 2.0054-10.077 1.835-2.58-0.12777-5.1371-0.70421-7.5225-1.6955-0.61737-2.7498-2.1419-6.2576-1.8531-8.2501 0.28879-1.9925-0.22087-4.147 0.86557-5.9779 1.0864-1.8308 1.003-4.813 3.2586-5.4932 1.7622-0.53146 3.3938-2.448 5.2006-2.5037z" style="fill:#412a24;stroke-width:.26458"/>
 <path d="m81.583 47.103c0.2535-0.38232 0.61533-0.69195 1.0322-0.88331 0.44753-0.20542 0.9553-0.27336 1.4429-0.20449 0.63226 0.0893 1.2108 0.39783 1.757 0.72864 0.30236 0.18314 0.59959 0.37475 0.89123 0.57453-0.4258 0.19508-0.86691 0.35674-1.3179 0.483-0.56822 0.15907-1.1598 0.26227-1.7478 0.21316-0.76162-0.0636-1.4988-0.39018-2.0576-0.91153z" style="fill:#c8b7b7;stroke-width:.18521;stroke:#412a24"/>
 <path d="m76.133 47.063c-0.40762-0.42128-0.88333-0.77653-1.403-1.0477-0.51405-0.26827-1.0918-0.45667-1.6682-0.39385-0.557 0.0607-1.0632 0.34939-1.5173 0.6777-0.31908 0.23073-0.62173 0.48418-0.90489 0.7578 0.45619 0.40833 1.0271 0.68707 1.6297 0.79564 0.79865 0.1439 1.6223-8e-3 2.3996-0.24159 0.4995-0.1498 0.98899-0.33299 1.4641-0.54796z" style="fill:#c8b7b7;stroke-width:.18521;stroke:#412a24"/>
 <path d="m77.643 46.35c0.43881 0.72643 0.5726 1.6309 0.36224 2.4531-0.16172 0.63211-0.51082 1.1974-0.83766 1.7622-0.265 0.45788-0.51918 0.92362-0.83197 1.3503-0.11962 0.16317-0.24806 0.32064-0.34882 0.49609-0.10076 0.17544-0.17353 0.37287-0.17053 0.57514 4e-3 0.24794 0.12532 0.48574 0.30384 0.65782 0.1905 0.18361 0.44264 0.29628 0.70331 0.34157 0.26066 0.0453 0.52995 0.02593 0.78858-0.02997 0.47079-0.1018 0.91809-0.32395 1.3994-0.34364 0.46317-0.01894 0.91045 0.15134 1.3663 0.23564 0.37623 0.06955 0.77329 0.07915 1.1338-0.04909 0.18025-0.06411 0.34935-0.16253 0.4873-0.29506 0.13795-0.13255 0.24379-0.29953 0.29559-0.48368 0.07768-0.27627 0.0303-0.57525-0.07338-0.84285-0.10367-0.2676-0.2608-0.51074-0.40978-0.75601-0.47908-0.78869-0.88603-1.6249-1.1596-2.5063-0.2575-0.82954-0.39531-1.696-0.40753-2.5645" style="fill:none;stroke-width:.052917;stroke:#412a24"/>
 <path d="m76.943 42.993 0.0945 1.2744c-1.1-0.21905-2.2141-0.36686-3.3331-0.44221-1.1652-0.0785-2.3357-0.0783-3.5009 3.7e-4 0.28688-0.33752 0.6595-0.60157 1.073-0.76038 0.42378-0.16274 0.88318-0.21448 1.3371-0.21356s0.906 0.0529 1.3584 0.091c0.98773 0.0831 1.981 0.1 2.971 0.0504z" style="fill:#412a24"/>
 <path d="m80.823 43.493 0.22018 1.0509c0.84449-0.19957 1.7049-0.33178 2.5703-0.39496 1.136-0.0829 2.2806-0.0467 3.409 0.10779-0.48555-0.41543-1.0421-0.74768-1.6382-0.97799-1.4616-0.56471-3.1592-0.48496-4.5614 0.21428z" style="fill:#412a24"/>
 <path d="m80.183 52.933c3e-3 -0.10967 0.0517-0.21551 0.12455-0.29755 0.0729-0.082 0.16908-0.14127 0.2717-0.1801 0.13199-0.0499 0.27964-0.067 0.41512-0.0275 0.0677 0.0198 0.13166 0.0535 0.18436 0.10046 0.0527 0.0469 0.0939 0.10714 0.11605 0.17414 0.0297 0.0901 0.024 0.18993-8e-3 0.27924-0.0319 0.0893-0.0889 0.16839-0.15776 0.23365-0.0763 0.0723-0.16813 0.1289-0.2685 0.16018-0.10036 0.0313-0.20924 0.0368-0.31127 0.0115s-0.19671-0.0821-0.26385-0.16296c-0.0671-0.0809-0.10568-0.18597-0.10243-0.29105z" style="fill:#333"/>
 <path d="m82.633 47.743c-0.0829-0.0684-0.13856-0.16507-0.17413-0.26643-0.0356-0.10136-0.0525-0.20815-0.0693-0.31425-0.0252-0.15845-0.0506-0.31854-0.0394-0.47859s0.0624-0.32246 0.1724-0.43924c0.10289-0.10922 0.24826-0.16964 0.39491-0.2014 0.14665-0.0317 0.29747-0.0378 0.44644-0.0557 0.22039-0.0265 0.43935-0.0793 0.66117-0.0708 0.11091 4e-3 0.22214 0.0242 0.32375 0.0689s0.19336 0.11496 0.25447 0.20761c0.0679 0.10292 0.095 0.22766 0.105 0.35054s4e-3 0.24659 0.0127 0.36958c0.0127 0.18298 0.0572 0.36359 0.0558 0.547-7e-4 0.0917-0.0132 0.18411-0.0458 0.2698-0.0327 0.0857-0.0864 0.16456-0.16015 0.21914-0.094 0.0696-0.21419 0.0957-0.3311 0.0968-0.11691 1e-3 -0.23262-0.0208-0.34817-0.0386-0.29743-0.0458-0.59889-0.0648-0.89446-0.12137-0.12944-0.0248-0.26236-0.0591-0.36404-0.14296z" style="fill:#412a24"/>
 <path d="m76.773 53.193c-0.0273-0.065-0.0218-0.14106 7e-3 -0.20548 0.0286-0.0644 0.0786-0.11772 0.13626-0.15824 0.11532-0.081 0.25718-0.11196 0.38938-0.1608 0.15005-0.0554 0.29275-0.13604 0.45063-0.16172 0.0789-0.0128 0.16137-0.0112 0.23712 0.0144 0.0758 0.0256 0.14438 0.0768 0.18244 0.14712 0.0301 0.0557 0.0401 0.12133 0.0319 0.18411-8e-3 0.0628-0.0339 0.12268-0.0704 0.17442-0.073 0.10348-0.18563 0.17231-0.30182 0.22265-0.20951 0.0908-0.4396 0.13009-0.66791 0.12734-0.0769-9.3e-4 -0.15512-7e-3 -0.22704-0.0342-0.036-0.0137-0.0701-0.0327-0.0992-0.0578-0.0292-0.0251-0.0533-0.0564-0.0682-0.0919z" style="fill:#333"/>
 <path d="m74.243 45.853c0.10881 0.0936 0.1683 0.23416 0.19167 0.37576 0.0234 0.14159 0.0142 0.28627 7e-3 0.42958-0.0108 0.20416-0.0186 0.4112-0.0791 0.6065-0.0302 0.0976-0.0737 0.19176-0.13437 0.27406-0.0606 0.0823-0.13879 0.15259-0.23035 0.19805-0.0972 0.0483-0.2065 0.0674-0.31485 0.0737-0.10835 6e-3 -0.21699 2.5e-4 -0.32552 1e-3 -0.12132 8.5e-4 -0.24278 0.0102-0.36384 2e-3 -0.12106-8e-3 -0.24369-0.0344-0.34623-0.0992-0.12421-0.0785-0.20915-0.20723-0.2671-0.34227-0.0579-0.13504-0.0923-0.27881-0.13889-0.41818-0.0475-0.14204-0.10797-0.28077-0.13407-0.42823-0.0131-0.0737-0.0173-0.14948-7e-3 -0.22358 0.0107-0.0741 0.0368-0.14663 0.0807-0.20729 0.0507-0.0701 0.1231-0.12191 0.19967-0.16218 0.0766-0.0403 0.15811-0.0701 0.23751-0.10444 0.15886-0.0687 0.31276-0.15688 0.48365-0.1844 0.17778-0.0286 0.35837 0.0108 0.53702 0.0334 0.1057 0.0134 0.21241 0.0209 0.31647 0.0438s0.20684 0.0623 0.28762 0.13175z" style="fill:#412a24"/>
 <path d="m73.013 46.863c-0.0561-0.0865-0.0685-0.20001-0.0323-0.29661s0.12009-0.17398 0.21929-0.2023c0.10024-0.0286 0.21363-6e-3 0.29561 0.058 0.082 0.0644 0.13048 0.16927 0.12643 0.27344-3e-3 0.0697-0.0281 0.13839-0.0715 0.19306-0.0434 0.0547-0.10445 0.0951-0.17173 0.11355-0.0673 0.0185-0.14043 0.015-0.20565-0.01-0.0652-0.0248-0.12219-0.0708-0.16016-0.12937z" style="fill:#c8b7b7"/>
 <path d="m83.203 47.123c-0.0587-0.088-0.0833-0.19816-0.0677-0.3028 0.0156-0.10465 0.0712-0.20283 0.15294-0.26998 0.0939-0.0771 0.22142-0.11177 0.34149-0.0929 0.12007 0.0188 0.23078 0.0908 0.29693 0.19273 0.0762 0.11752 0.0907 0.27291 0.0371 0.40234-0.0536 0.12944-0.17374 0.22923-0.31087 0.25787-0.0845 0.0177-0.17423 9e-3 -0.25391-0.024-0.0797-0.0332-0.14893-0.0909-0.19593-0.16326z" style="fill:#c8b7b7"/>
 <g id="g240" transform="translate(-84.569,-86.257)" style="opacity:.15">
  <path d="m86.45 99.862 4.0625-3.8816 3.8063 4.188-4.1983 3.7163z" style="fill:none;stroke-width:.26458px;stroke:#000"/>
  <path d="m90.649 95.188-0.90256 0.90947 0.75913 0.86497 0.89303-0.96507z" style="fill:none;stroke-width:.26458px;stroke:#000"/>
  <path d="m94.368 99.263-1.102 0.88168 0.82256 0.89877 1.1347-0.93479z" style="fill:none;stroke-width:.26458px;stroke:#000"/>
  <path d="m86.266 99.041 0.78706 0.88128-0.84814 0.82387-0.74778-0.93075z" style="fill:none;stroke-width:.26458px;stroke:#000"/>
  <path d="m90.245 103.06-0.89969 0.80938 0.68618 0.72142 0.8296-0.70849z" style="fill:none;stroke-width:.26458px;stroke:#000"/>
 </g>
 <use transform="translate(8.4667)" width="100%" height="100%" xlink:href="#g240"/>
 <use transform="translate(16.404)" width="100%" height="100%" xlink:href="#g240"/>
 <use transform="translate(24.342)" width="100%" height="100%" xlink:href="#g240"/>
 <use transform="translate(32.279)" width="100%" height="100%" xlink:href="#g240"/>
 <use transform="translate(40.217)" width="100%" height="100%" xlink:href="#g240"/>
 <use transform="translate(48.154)" width="100%" height="100%" xlink:href="#g240"/>
 <use transform="translate(56.092)" width="100%" height="100%" xlink:href="#g240"/>
 <use transform="translate(64.029)" width="100%" height="100%" xlink:href="#g240"/>
 <use transform="translate(72.496)" width="100%" height="100%" xlink:href="#g240"/>
 <use transform="translate(80.433)" width="100%" height="100%" xlink:href="#g240"/>
 <use transform="translate(88.9)" width="100%" height="100%" xlink:href="#g240"/>
 <use transform="translate(97.367)" width="100%" height="100%" xlink:href="#g240"/>
 <use transform="translate(105.83)" width="100%" height="100%" xlink:href="#g240"/>
 <use transform="translate(114.3)" width="100%" height="100%" xlink:href="#g240"/>
 <use transform="translate(122.24)" width="100%" height="100%" xlink:href="#g240"/>
 <use transform="translate(130.7)" width="100%" height="100%" xlink:href="#g240"/>
 <use transform="translate(138.11)" width="100%" height="100%" xlink:href="#g240"/>
 <use transform="translate(146.58)" width="100%" height="100%" xlink:href="#g240"/>
 <use transform="translate(8.9958 -7.9375)" width="100%" height="100%" xlink:href="#g240"/>
 <use transform="translate(16.933 -7.9375)" width="100%" height="100%" xlink:href="#g240"/>
 <use transform="translate(24.871 -7.9375)" width="100%" height="100%" xlink:href="#g240"/>
 <use transform="translate(32.808 -7.9375)" width="100%" height="100%" xlink:href="#g240"/>
 <use transform="translate(40.746 -7.9375)" width="100%" height="100%" xlink:href="#g240"/>
 <use transform="translate(48.683 -7.9375)" width="100%" height="100%" xlink:href="#g240"/>
 <use transform="translate(56.621 -7.9375)" width="100%" height="100%" xlink:href="#g240"/>
 <use transform="translate(64.558 -7.9375)" width="100%" height="100%" xlink:href="#g240"/>
 <use transform="translate(73.025 -7.9375)" width="100%" height="100%" xlink:href="#g240"/>
 <use transform="translate(80.963 -7.9375)" width="100%" height="100%" xlink:href="#g240"/>
 <use transform="translate(89.429 -7.9375)" width="100%" height="100%" xlink:href="#g240"/>
 <use transform="translate(97.896 -7.9375)" width="100%" height="100%" xlink:href="#g240"/>
 <use transform="translate(106.36 -7.9375)" width="100%" height="100%" xlink:href="#g240"/>
 <use transform="translate(114.83 -7.9375)" width="100%" height="100%" xlink:href="#g240"/>
 <use transform="translate(122.77 -7.9375)" width="100%" height="100%" xlink:href="#g240"/>
 <use transform="translate(131.23 -7.9375)" width="100%" height="100%" xlink:href="#g240"/>
 <use transform="translate(138.64 -7.9375)" width="100%" height="100%" xlink:href="#g240"/>
 <use transform="translate(147.11 -7.9375)" width="100%" height="100%" xlink:href="#g240"/>
 <use transform="translate(7.9375 7.9375)" width="100%" height="100%" xlink:href="#g240"/>
 <use transform="translate(15.875 7.9375)" width="100%" height="100%" xlink:href="#g240"/>
 <use transform="translate(23.813 7.9375)" width="100%" height="100%" xlink:href="#g240"/>
 <use transform="translate(31.75 7.9375)" width="100%" height="100%" xlink:href="#g240"/>
 <use transform="translate(39.688 7.9375)" width="100%" height="100%" xlink:href="#g240"/>
 <use transform="translate(47.625 7.9375)" width="100%" height="100%" xlink:href="#g240"/>
 <use transform="translate(55.563 7.9375)" width="100%" height="100%" xlink:href="#g240"/>
 <use transform="translate(63.5 7.9375)" width="100%" height="100%" xlink:href="#g240"/>
 <use transform="translate(71.967 7.9375)" width="100%" height="100%" xlink:href="#g240"/>
 <use transform="translate(79.904 7.9375)" width="100%" height="100%" xlink:href="#g240"/>
 <use transform="translate(88.371 7.9375)" width="100%" height="100%" xlink:href="#g240"/>
 <use transform="translate(96.838 7.9375)" width="100%" height="100%" xlink:href="#g240"/>
 <use transform="translate(105.3 7.9375)" width="100%" height="100%" xlink:href="#g240"/>
 <use transform="translate(113.77 7.9375)" width="100%" height="100%" xlink:href="#g240"/>
 <use transform="translate(121.71 7.9375)" width="100%" height="100%" xlink:href="#g240"/>
 <use transform="translate(130.18 7.9375)" width="100%" height="100%" xlink:href="#g240"/>
 <use transform="translate(137.58 7.9375)" width="100%" height="100%" xlink:href="#g240"/>
 <use transform="translate(146.05 7.9375)" width="100%" height="100%" xlink:href="#g240"/>
 <use transform="translate(.52917 -7.9375)" width="100%" height="100%" xlink:href="#g240"/>
 <use transform="translate(-.52917 7.9375)" width="100%" height="100%" xlink:href="#g240"/>
</svg>
