<svg xmlns="http://www.w3.org/2000/svg" width="126.245" height="114.786" viewBox="0 0 126.245 114.786">
  <g id="Group_3" data-name="Group 3" transform="translate(-111.235 1563.614)">
    <path id="Path_1" data-name="Path 1" d="M237.48-1448.828H111.235v-114.786l126.245,10.607Z" transform="translate(0 0)"/>
    <g id="Group_1" data-name="Group 1" transform="translate(126.695 -1537.62)">
      <path id="Path_2" data-name="Path 2" d="M165.547-1480.157v11.19H162.8v-11.19h-3.589v-2.558h9.929v2.558Z" transform="translate(-159.208 1482.792)" fill="#00d1ca"/>
      <path id="Path_3" data-name="Path 3" d="M203.357-1468.968l-2.215-5.1h-2.215v5.1h-2.75v-13.748h7.008A2.586,2.586,0,0,1,205.9-1480v3.227a2.558,2.558,0,0,1-1.871,2.6l2.291,5.213Zm-.21-10.5a.584.584,0,0,0-.649-.649h-3.57v3.494h3.57a.584.584,0,0,0,.649-.649Z" transform="translate(-184.264 1482.792)" fill="#00d1ca"/>
      <path id="Path_4" data-name="Path 4" d="M233.8-1468.968h-2.845l4.43-13.748h3.208l4.43,13.748h-2.959l-.9-3.094h-4.449Zm1.68-5.69h2.94l-1.451-5.041Z" transform="translate(-207.834 1482.792)" fill="#00d1ca"/>
      <path id="Path_5" data-name="Path 5" d="M284.625-1482.716v13.748h-2.96l-5.06-9.375v9.375h-2.578v-13.748h2.96l5.06,9.375v-9.375Z" transform="translate(-237.026 1482.792)" fill="#00d1ca"/>
      <path id="Path_6" data-name="Path 6" d="M321.884-1479.707a.584.584,0,0,0-.649-.649h-2.75a.585.585,0,0,0-.649.649v1.3c0,.42.229.554.649.649l3.551.764c1.49.325,2.75,1.222,2.75,2.75v2.482a2.586,2.586,0,0,1-2.711,2.712H317.8a2.586,2.586,0,0,1-2.711-2.712v-1.757h2.673v1.222a.584.584,0,0,0,.649.649h2.978a.584.584,0,0,0,.649-.649v-1.451c0-.42-.229-.554-.649-.649l-3.551-.764c-1.489-.324-2.749-1.222-2.749-2.749v-2.33a2.586,2.586,0,0,1,2.711-2.711h4.048a2.586,2.586,0,0,1,2.711,2.711v1.6h-2.673Z" transform="translate(-264.853 1482.953)" fill="#00d1ca"/>
      <path id="Path_7" data-name="Path 7" d="M168.739-1412.355a2.586,2.586,0,0,1-2.711,2.711h-3.991a2.586,2.586,0,0,1-2.712-2.711v-3.017h2.75v2.482a.585.585,0,0,0,.649.649h2.616a.585.585,0,0,0,.649-.649v-10.578h2.749Z" transform="translate(-159.288 1442.638)" fill="#fc2032"/>
      <path id="Path_8" data-name="Path 8" d="M206.408-1412.355a2.586,2.586,0,0,1-2.711,2.711h-4.392a2.586,2.586,0,0,1-2.711-2.711v-11.113h2.749v10.578a.584.584,0,0,0,.649.649h3.017a.584.584,0,0,0,.649-.649v-10.578h2.75Z" transform="translate(-184.546 1442.638)" fill="#fc2032"/>
      <path id="Path_9" data-name="Path 9" d="M241.369-1420.458a.585.585,0,0,0-.649-.65h-2.75a.585.585,0,0,0-.649.65v1.3c0,.42.229.554.649.649l3.552.764c1.49.325,2.75,1.222,2.75,2.75v2.482a2.586,2.586,0,0,1-2.711,2.712h-4.277a2.586,2.586,0,0,1-2.711-2.712v-1.757h2.673v1.222a.584.584,0,0,0,.649.649h2.978a.584.584,0,0,0,.649-.649v-1.451c0-.42-.229-.554-.649-.649l-3.552-.764c-1.489-.324-2.749-1.222-2.749-2.75v-2.329a2.586,2.586,0,0,1,2.711-2.711h4.048a2.586,2.586,0,0,1,2.712,2.711v1.6h-2.673Z" transform="translate(-210.284 1442.798)" fill="#fc2032"/>
      <path id="Path_10" data-name="Path 10" d="M275.334-1420.909v11.189h-2.75v-11.189h-3.59v-2.559h9.929v2.559Z" transform="translate(-233.615 1442.638)" fill="#fc2032"/>
      <path id="Path_11" data-name="Path 11" d="M305.965-1423.468h2.75v13.748h-2.75Z" transform="translate(-258.67 1442.638)" fill="#fc2032"/>
      <path id="Path_12" data-name="Path 12" d="M329.876-1420.458a.585.585,0,0,0-.649-.65h-2.979a.584.584,0,0,0-.649.65v7.408a.584.584,0,0,0,.649.649h2.979a.584.584,0,0,0,.649-.649v-1.68h2.75v2.215a2.586,2.586,0,0,1-2.712,2.712H325.56a2.586,2.586,0,0,1-2.712-2.712v-8.478a2.586,2.586,0,0,1,2.712-2.711h4.353a2.586,2.586,0,0,1,2.712,2.711v2.215h-2.75Z" transform="translate(-270.113 1442.798)" fill="#fc2032"/>
      <path id="Path_13" data-name="Path 13" d="M369.76-1423.468v2.6h-6.244v2.826h5.06v2.6h-5.06v3.131h6.244v2.6h-8.994v-13.748Z" transform="translate(-295.811 1442.638)" fill="#fc2032"/>
      <path id="Path_14" data-name="Path 14" d="M162.407-1364.22H171.4v2.6h-6.244v2.94h5.06v2.6h-5.06v5.614h-2.75Z" transform="translate(-161.376 1402.483)" fill="#a40077"/>
      <path id="Path_15" data-name="Path 15" d="M205.933-1353.107a2.586,2.586,0,0,1-2.711,2.711H198.83a2.586,2.586,0,0,1-2.711-2.711v-11.113h2.749v10.578a.584.584,0,0,0,.649.649h3.017a.584.584,0,0,0,.649-.649v-10.578h2.75Z" transform="translate(-184.224 1402.483)" fill="#a40077"/>
      <path id="Path_16" data-name="Path 16" d="M245.878-1364.22v13.748h-2.96l-5.06-9.375v9.375h-2.578v-13.748h2.96l5.06,9.375v-9.375Z" transform="translate(-210.765 1402.483)" fill="#a40077"/>
      <path id="Path_17" data-name="Path 17" d="M284.684-1364.22a2.586,2.586,0,0,1,2.711,2.712v8.325a2.586,2.586,0,0,1-2.711,2.711h-7.16v-13.748ZM284-1353.069a.584.584,0,0,0,.649-.649v-7.256a.584.584,0,0,0-.649-.649h-3.723v8.554Z" transform="translate(-239.395 1402.483)" fill="#a40077"/>
      <path id="Path_18" data-name="Path 18" d="M316.509-1364.22h2.75v13.748h-2.75Z" transform="translate(-265.816 1402.483)" fill="#a40077"/>
      <path id="Path_19" data-name="Path 19" d="M345-1364.22v13.748h-2.96l-5.06-9.375v9.375H334.4v-13.748h2.96l5.06,9.375v-9.375Z" transform="translate(-277.942 1402.483)" fill="#a40077"/>
      <path id="Path_20" data-name="Path 20" d="M382.835-1361.21a.584.584,0,0,0-.649-.649h-3.151a.584.584,0,0,0-.649.649v7.408a.584.584,0,0,0,.649.649h3.151a.584.584,0,0,0,.649-.649v-2.043h-2.52v-2.482h5.27v5.06a2.586,2.586,0,0,1-2.712,2.711h-4.525a2.586,2.586,0,0,1-2.711-2.711v-8.478a2.586,2.586,0,0,1,2.711-2.711h4.525a2.586,2.586,0,0,1,2.712,2.711v1.795h-2.75Z" transform="translate(-305.89 1402.643)" fill="#a40077"/>
      <path id="Path_21" data-name="Path 21" d="M169.434-1304.973a2.586,2.586,0,0,1,2.712,2.711v3.475a2.586,2.586,0,0,1-2.712,2.711h-4.277v4.85h-2.75v-13.748Zm-.687,6.3a.584.584,0,0,0,.649-.649v-2.406a.584.584,0,0,0-.649-.649h-3.59v3.7Z" transform="translate(-161.376 1362.33)" fill="#ffbe00"/>
      <path id="Path_22" data-name="Path 22" d="M206.675-1291.225l-2.215-5.1h-2.215v5.1H199.5v-13.748H206.5a2.586,2.586,0,0,1,2.711,2.711v3.227a2.558,2.558,0,0,1-1.871,2.6l2.292,5.213Zm-.21-10.5a.584.584,0,0,0-.649-.649h-3.57v3.494h3.57a.584.584,0,0,0,.649-.649Z" transform="translate(-186.513 1362.33)" fill="#ffbe00"/>
      <path id="Path_23" data-name="Path 23" d="M244.313-1305.209a2.586,2.586,0,0,1,2.711,2.711v8.478a2.586,2.586,0,0,1-2.711,2.711h-4.6A2.586,2.586,0,0,1,237-1294.02v-8.478a2.586,2.586,0,0,1,2.711-2.711Zm-.038,3.246a.584.584,0,0,0-.649-.649H240.4a.584.584,0,0,0-.649.649v7.408a.584.584,0,0,0,.649.649h3.227a.584.584,0,0,0,.649-.649Z" transform="translate(-211.93 1362.49)" fill="#ffbe00"/>
      <path id="Path_24" data-name="Path 24" d="M282.79-1293.86a2.586,2.586,0,0,1-2.711,2.712h-3.991a2.586,2.586,0,0,1-2.712-2.712v-3.016h2.75v2.482a.584.584,0,0,0,.649.649h2.616a.584.584,0,0,0,.649-.649v-10.578h2.75Z" transform="translate(-236.584 1362.33)" fill="#ffbe00"/>
      <path id="Path_25" data-name="Path 25" d="M320.289-1304.973v2.6h-6.244v2.826h5.06v2.6h-5.06v3.132h6.244v2.6H311.3v-13.748Z" transform="translate(-262.283 1362.33)" fill="#ffbe00"/>
      <path id="Path_26" data-name="Path 26" d="M352.272-1301.963a.584.584,0,0,0-.649-.649h-2.979a.584.584,0,0,0-.649.649v7.408a.584.584,0,0,0,.649.649h2.979a.584.584,0,0,0,.649-.649v-1.681h2.75v2.215a2.586,2.586,0,0,1-2.711,2.711h-4.354a2.586,2.586,0,0,1-2.711-2.711v-8.478a2.586,2.586,0,0,1,2.711-2.711h4.354a2.586,2.586,0,0,1,2.711,2.711v2.215h-2.75Z" transform="translate(-285.292 1362.49)" fill="#ffbe00"/>
      <path id="Path_27" data-name="Path 27" d="M385.828-1302.414v11.189h-2.75v-11.189h-3.59v-2.559h9.929v2.559Z" transform="translate(-308.5 1362.33)" fill="#ffbe00"/>
    </g>
  </g>
</svg>
